<svg xmlns="http://www.w3.org/2000/svg" width="680.625" height="725.343"><path fill="#6c63ff" d="m183.381 484.348-5.56 43.247c-46.776-9.322-91.35.458-100.673 47.235l-22.557-4.496a109.624 109.624 0 0 1 128.79-85.986Z"/><path fill="#f1f2f2" d="M361.112 311.935c20.523 13.28 48.671 13.659 69.544.935l2.508-12.011c4.921 5.111 14.598 4.146 18.412-1.836a312.832 312.832 0 0 0-85.71-109.764c10.531 6.551 25.736 4.087 33.658-5.455a132.677 132.677 0 0 0 33.502-16.918C397.67 110.084 330.256 64.96 314.232 0c-48.207 51.769-53.618 70.001-101.825 121.77 0 0-45.647 41.19-55.5 63.325 2.422 2.543 24.095 8.645 24.928 13.645a57.888 57.888 0 0 0 45.163-16.791c-30.986 32.93-62.5 66.631-81.476 107.674-1.708 3.695-3.331 7.916-1.9 11.727 1.143 3.044 5.243 4.798 7.884 3.59a33.805 33.805 0 0 0-7.458 10.677c10.79 7.294 26.704 5.691 35.823-3.607l-7.929 14.813a72.973 72.973 0 0 0 55.82-2.414c-20.936 13.135-73.286 58.671-84.69 80.598-5.166 9.934 47.878 21.908 59.808 21.417 11.931-.491 23.083-5.734 33.859-10.879a25.05 25.05 0 0 0 2.701 14.253 45.58 45.58 0 0 0 34.909-5.643c-.643 13.288 22.26 18.547 27.478 6.31-1.958 7.194 7.562 11.648 14.903 12.951 20.946 3.718 46.223 5.979 59.853-10.355 15.687 15.818 44.434 15.518 60.03-.245-1.534 2.72.815 7.296 4.29 8.017 4.096.85 8.081-1.584 11.558-3.909l47.225-31.572-138.574-93.417Z"/><path fill="#f1f2f2" d="M287.208 403.58h20.875v172.217h-20.875z"/><path fill="#fff" d="M327.768 336.703a29.138 29.138 0 0 1-2.558 5.883 28.644 28.644 0 0 1-7.628 8.632 29.8 29.8 0 0 1-3.276 2.127 28.909 28.909 0 0 1-16.45 3.63 25.788 25.788 0 0 1-3.067-.426 26.918 26.918 0 0 1-3.23-.795 28.914 28.914 0 0 1-9.531-5.044 26.721 26.721 0 0 1-2.318-2.068 29.034 29.034 0 0 1-8.532-19.621 27.367 27.367 0 0 1 .077-3.175 27.5 27.5 0 0 1 .3-2.44 29.507 29.507 0 0 1 .911-3.859 28.954 28.954 0 0 1 3.7-7.707c.32-.481.664-.946 1.016-1.408 9.766-12.658 24.977-1.855 40.603-5.236 14.712-3.183 14.853 4.158 9.992 14.43a28.813 28.813 0 0 1-.009 17.077Z"/><path d="m536.872 397.803-6.004 18.589a27.37 27.37 0 0 1 .077-3.175c.063-.812.163-1.624.3-2.44l4.625-11.562c.33-.494.65-.95 1.002-1.412ZM571.255 401.89l-13.706 42.446a25.788 25.788 0 0 1-3.067-.425ZM587.488 406.914l-.015.047-10.211 31.609a29.8 29.8 0 0 1-3.276 2.127l13.466-33.752Z" opacity=".1" style="isolation:isolate" transform="translate(-259.688 -87.328)"/><path fill="#6c63ff" d="M337.072 398.184a55.752 55.752 0 0 1-24.12 31.12 57.266 57.266 0 0 1-4.677 2.578 55.787 55.787 0 0 1-26.377 5.735 48.357 48.357 0 0 1-4.522-.326 56.247 56.247 0 0 1-21.54-7.006 52.078 52.078 0 0 1-3.786-2.36 55.857 55.857 0 0 1-17.628-19.495 49.847 49.847 0 0 1-2.19-4.473c-12.353-28.359 29.218-61.356 28.982-73.713s61.36.623 73.713 28.982a56.007 56.007 0 0 1 2.145 38.958Z"/><path d="M541.354 436.77 515.5 517.626a52.08 52.08 0 0 1-3.788-2.36ZM567.203 444.77l-25.644 80.193a48.364 48.364 0 0 1-4.521-.326Z" opacity=".1" style="isolation:isolate" transform="translate(-259.688 -87.328)"/><path fill="#e6e6e6" d="M278.911 396.674c49.038 17.63 80.52 46.829 56.819 110.127-17.122 45.724-63.276 72.96-109.09 58.782s-68.527-62.725-56.82-110.126c18.177-73.589 63.123-75.31 109.091-58.783Z"/><path fill="#6c63ff" d="M317.809 603.02a97.747 97.747 0 0 1-43.878 55.519q-3.432 2.042-7.045 3.787a98.263 98.263 0 0 1-25.216 8.272q-3.549.66-7.17 1.048a97.403 97.403 0 0 1-21.544-.077q-3.458-.395-6.91-1.045a97.901 97.901 0 0 1-11.032-2.749q-4.257-1.317-8.293-2.974a106.172 106.172 0 0 1-6.301-2.846 96.927 96.927 0 0 1-17.616-11.21q-2.744-2.162-5.31-4.527a97.797 97.797 0 0 1-15.705-18.601c-1.342-2.048-45.051-19.209-46.226-21.356-12.884-23.321 26.756-35.827 34.667-61.27q1.317-4.256 2.976-8.296c29.67-106.891 70.52-64.365 119.819-56.458 55.512 8.904 94.986 20.577 66.985 114.268q-.889 4.258-2.201 8.516Z"/><path d="M435.406 608.844 401.492 714.93q-2.012-3.072-3.774-6.292ZM461.255 616.844 422.49 738.079q-2.742-2.168-5.308-4.532Z" opacity=".1" style="isolation:isolate" transform="translate(-259.688 -87.328)"/><path d="m186.717 664.799 40.702-127.294-46.999 124.45 6.297 2.844zM212.967 671.551l40.296-126.048-47.207 125.004 6.911 1.044z" opacity=".1" style="isolation:isolate"/><path d="M538.797 640.84 501.366 757.92q-3.55.66-7.171 1.047ZM564.646 648.84l-31.02 97.02q-3.432 2.041-7.045 3.786Z" opacity=".1" style="isolation:isolate" transform="translate(-259.688 -87.328)"/><path fill="#ffab9e" d="M317.599 446.19a51.507 51.507 0 1 1 2.301-13.882 51.507 51.507 0 0 1-2.301 13.881Z"/><path fill="#ccc" d="m238.425 367.677 100.067 30.967c4.306 1.333 6.457 6.747 4.802 12.092 4.208 8.995 6.762 18.025-8.486 27.42-1.654 5.346-6.486 8.599-10.792 7.266-26.812-29.075-59.154-42.302-100.067-30.968-4.307-1.332-6.457-6.746-4.803-12.091-5.064-16.715-3.39-26.964 8.486-27.42 1.654-5.346 6.486-8.599 10.793-7.266Z"/><path fill="#eeeff0" d="M308 517.65c-4.827 15.597-15.323 19.102-28.446 21.484q-2.136.383-4.36.745c-4.653.774-9.568 1.551-14.631 2.774a92.324 92.324 0 0 0-5.282 1.438 68.24 68.24 0 0 0-15.186 6.665 64.643 64.643 0 0 0-7.94 5.599l-.009.008a69.599 69.599 0 0 0-3.647 3.21c-32.573 30.76-52.3-45.97-41.924-79.5A63.553 63.553 0 0 1 308 517.65Z"/><path d="M577.868 689.15a98.227 98.227 0 0 1-9.204 20.86l-182.51-56.482a98.227 98.227 0 0 1 4.188-22.411q1.317-4.257 2.978-8.302l186.785 57.804q-.923 4.269-2.237 8.531Z" opacity=".1" style="isolation:isolate" transform="translate(-259.688 -87.328)"/><path d="M577.124 691.553a98.304 98.304 0 0 1-9.205 20.864l-182.51-56.481a98.302 98.302 0 0 1 4.19-22.416q1.317-4.257 2.977-8.302l186.785 57.804q-.923 4.268-2.237 8.531Z" opacity=".1" style="isolation:isolate" transform="translate(-259.688 -87.328)"/><path fill="#373e46" d="M317.809 603.02a98.267 98.267 0 0 1-9.205 20.865l-182.51-56.481a98.268 98.268 0 0 1 4.19-22.417q1.317-4.256 2.975-8.297c68.458 8.143 133.817 21.85 186.785 57.805q-.923 4.268-2.235 8.526Z"/><circle cx="481.676" cy="667.94" r="22.023" opacity=".1" style="isolation:isolate" transform="rotate(-72.804 292.612 800.378)"/><circle cx="481.676" cy="667.94" r="20.763" fill="#eeeff0" transform="rotate(-72.804 292.612 800.378)"/><circle cx="481.676" cy="667.94" r="16.362" fill="#373e46" transform="rotate(-72.804 292.612 800.378)"/><path d="m475.296 548.061-22.848 70.768a63.613 63.613 0 0 1-3.083-5.801ZM491.524 553.083l-26.19 81.13a58.402 58.402 0 0 1-4.475-4.285ZM507.757 558.107l-27.662 85.663a60.277 60.277 0 0 1-5.403-2.84ZM523.984 563.129l-24.201 74.956a64.643 64.643 0 0 0-7.941 5.598ZM540.217 568.152l-19.967 61.83a92.324 92.324 0 0 0-5.281 1.438ZM556.445 573.174l-17.203 53.289q-2.137.383-4.36.744Z" opacity=".1" style="isolation:isolate" transform="translate(-259.688 -87.328)"/><path d="m265.429 401.149 7.283-22.772-8.463 22.407 1.18.365zM298.556 386.375l-7.283 22.772-1.18-.365 8.463-22.407z" opacity=".1" style="isolation:isolate"/><circle cx="264.116" cy="444.787" r="19.526" fill="#ffab9e"/><path fill="#3f3d56" d="M174.9 423.113a50.734 50.734 0 0 0 52.756.71l1.902-9.112c3.733 3.878 11.074 3.146 13.968-1.392a237.314 237.314 0 0 0-65.02-83.267c7.989 4.97 19.524 3.1 25.533-4.139a100.65 100.65 0 0 0 25.414-12.833c-26.82-43.09-77.96-77.322-90.116-126.6-36.57 39.272-40.675 53.103-77.245 92.374 0 0-34.627 31.247-42.102 48.039 1.837 1.929 18.278 6.558 18.91 10.351a43.914 43.914 0 0 0 34.26-12.738c-23.505 24.981-47.412 50.547-61.807 81.681-1.296 2.804-2.527 6.006-1.441 8.897.867 2.309 3.977 3.64 5.98 2.723a25.645 25.645 0 0 0-5.657 8.1 22.029 22.029 0 0 0 27.176-2.737l-6.015 11.238a55.358 55.358 0 0 0 42.345-1.832c-15.882 9.964-55.595 44.508-64.246 61.142-3.92 7.536 36.32 16.62 45.37 16.247 9.051-.373 17.51-4.35 25.685-8.253a19.002 19.002 0 0 0 2.05 10.813 34.577 34.577 0 0 0 26.481-4.282c-.488 10.081 16.886 14.07 20.845 4.787-1.485 5.458 5.737 8.837 11.305 9.825 15.89 2.82 35.065 4.536 45.405-7.855 11.9 12 33.708 11.772 45.54-.186-1.165 2.063.617 5.535 3.254 6.082 3.107.644 6.13-1.202 8.767-2.965l35.825-23.951L174.9 423.113Z"/><path fill="#3f3d56" d="M118.836 492.635h15.836v130.644h-15.836z"/><path fill="#e6e7e8" d="M613.278 515.483c-52.39 123.35-174.65 209.86-317.12 209.86-115.4 0-217.55-56.76-280.04-143.9 12.68-3.59 25.47-5.21 38.6-2.65 31.49 6.15 54.46 35.11 85.67 42.56 26.98 6.44 55.12-4.42 78.99-18.54 23.88-14.13 45.98-31.86 72.08-41.27 17.31-6.24 42.6-4.51 46.84 13.4 1.93 8.17-.58 19.17 6.82 23.15q87.975-31.725 175.95-63.46c19.01-6.85 38.09-13.73 57.86-17.94 11.24-2.39 23.37-3.76 34.35-1.21Z"/><path fill="#3f3d56" d="M585.224 311.881c18.113 11.72 42.955 12.055 61.377.826l2.213-10.6c4.343 4.51 12.883 3.659 16.25-1.62a276.09 276.09 0 0 0-75.643-96.873c9.293 5.782 22.713 3.606 29.704-4.815a117.095 117.095 0 0 0 29.567-14.93c-31.202-50.13-90.7-89.956-104.841-147.286-42.545 45.689-47.321 61.78-89.866 107.468 0 0-40.286 36.352-48.98 55.888 2.136 2.244 21.263 7.63 21.999 12.042a51.09 51.09 0 0 0 39.858-14.819c-27.346 29.063-55.16 58.806-71.906 95.028-1.508 3.261-2.94 6.986-1.677 10.35 1.009 2.686 4.627 4.235 6.957 3.167a29.835 29.835 0 0 0-6.58 9.424c9.522 6.437 23.566 5.023 31.615-3.184l-6.998 13.074a64.403 64.403 0 0 0 49.264-2.13c-18.477 11.591-64.68 51.78-74.743 71.132-4.56 8.766 42.254 19.334 52.783 18.9 10.53-.433 20.372-5.06 29.882-9.6a22.107 22.107 0 0 0 2.384 12.579 40.226 40.226 0 0 0 30.809-4.981c-.568 11.728 19.645 16.37 24.25 5.57-1.727 6.348 6.674 10.28 13.153 11.43 18.486 3.28 40.794 5.276 52.823-9.14 13.845 13.96 39.216 13.696 52.98-.216-1.354 2.4.72 6.44 3.787 7.075 3.614.75 7.131-1.397 10.2-3.45 13.893-9.287-10.84-25.385 3.052-34.673-40.766-27.482-42.906-48.154-83.673-75.636Z"/><path fill="#3f3d56" d="M520.001 392.763h18.423v151.99h-18.423z"/><circle cx="31.514" cy="212.67" r="5.647" fill="#e6e7e8"/><circle cx="10.471" cy="343.337" r="5.647" fill="#e6e7e8"/><circle cx="22.346" cy="438.025" r="5.647" fill="#e6e7e8"/><circle cx="472.38" cy="151.337" r="5.647" fill="#e6e7e8"/><circle cx="91.769" cy="370.443" r="5.647" fill="#fff"/><circle cx="179.863" cy="398.41" r="5.647" fill="#fff"/><circle cx="501.794" cy="287.996" r="5.647" fill="#fff"/><circle cx="529.212" cy="185.22" r="5.647" fill="#e6e7e8"/><circle cx="427.204" cy="282.349" r="5.647" fill="#fff"/><circle cx="174.216" cy="326.396" r="5.647" fill="#fff"/><circle cx="185.51" cy="185.22" r="5.647" fill="#e6e7e8"/><circle cx="326.412" cy="192.16" r="5.647" fill="#e6e7e8"/><circle cx="365.322" cy="349.937" r="5.647" fill="#fff"/><circle cx="424.158" cy="336.149" r="5.647" fill="#e6e7e8"/><circle cx="466.733" cy="444.434" r="5.647" fill="#fff"/><circle cx="438.498" cy="474.405" r="5.647" fill="#e6e7e8"/><circle cx="296.158" cy="370.443" r="5.647" fill="#fff"/><circle cx="529.212" cy="355.153" r="5.647" fill="#e6e7e8"/><circle cx="664.596" cy="424.628" r="16.029" fill="#6c63ff"/><circle cx="565.82" cy="435.923" r="16.029" fill="#ff6584"/><circle cx="389.218" cy="404.057" r="16.029" fill="#6c63ff"/><circle cx="379.763" cy="299.29" r="16.029" fill="#6c63ff"/><circle cx="664.596" cy="293.643" r="16.029" fill="#6c63ff"/><circle cx="648.692" cy="183.869" r="16.029" fill="#ff6584"/><circle cx="86.122" cy="503.093" r="5.647" fill="#fff"/><circle cx="161.265" cy="508.468" r="5.647" fill="#fff"/><circle cx="273.57" cy="524.473" r="5.647" fill="#fff"/><circle cx="249.886" cy="251.855" r="5.647" fill="#fff"/><circle cx="260.149" cy="223.783" r="5.647" fill="#e6e7e8"/><circle cx="124.522" cy="293.643" r="5.647" fill="#fff"/><path fill="#fff" d="M620.74 286.865c9.642-4.204-9.912-6.65-32.096-7.456s-49.02-.76-63.198-3.048c-13.71-2.214-12.7-6.15-13.854-9.715s-6.424-7.222-27.82-8.015c-26.66-.988-70.625 2.814-90.75.532-18.782-2.13-7.618-8.812-35.004-9.068-15.639-.146-35.785 2.057-53.186 2.589-16.337.499-28.422-.535-36.904-1.924s-14.388-3.152-23.934-4.379c-25.06-3.222-74.091-2.14-117.853 1.99S44.868 259.27 23.712 265.975s-27 13.303-22.072 18.9c3.147 3.574 11.2 6.916 30.732 8.352 36.536 2.686 101.584-1.937 139.337.507 21.042 1.362 30.377 4.739 48.839 6.587 19.834 1.985 48.869 2.09 77.396 2.043 59.397-.098 120.314-.708 182.43-1.827 25.945-.468 53.13-1.075 80.738-3.303s55.766-6.526 61.59-10.555" opacity=".35"/><circle cx="421.557" cy="195.601" r="16.029" fill="#6c63ff"/><circle cx="271.805" cy="340.396" r="5.647" fill="#fff"/><circle cx="531.362" cy="85.831" r="5.647" fill="#fff"/><circle cx="284.864" cy="416.697" r="5.647" fill="#fff"/><circle cx="392.482" cy="508.74" r="5.647" fill="#fff"/><circle cx="438.498" cy="589.795" r="5.647" fill="#fff"/><circle cx="301.117" cy="592.138" r="5.647" fill="#fff"/><circle cx="143.394" cy="640.906" r="5.647" fill="#fff"/><circle cx="332.322" cy="370.443" r="5.647" fill="#fff"/><circle cx="257.227" cy="244.475" r="5.647" fill="#6c63ff"/><path fill="#6c63ff" d="m313.563 550.761-3-43.5c47.697 0 89.5-18.303 89.5-66h23a109.624 109.624 0 0 1-109.5 109.5ZM381.275 429.135a22.095 22.095 0 0 1 3.509-.34 19.37 19.37 0 0 1 2.008-.901Z"/><path fill="#d1d3d4" d="M521.695 539.336a59.855 59.855 0 0 0-29.84-48.925c-20.286-11.436-45.503-9.976-66.931-19.097-4.174-1.777-8.356-4.106-10.815-7.918-3.164-4.903-2.863-11.202-4.487-16.807-3.056-10.552-13.949-18.074-24.838-17.795a20.786 20.786 0 0 0-1 36.667c-11.047-1.91-22.362 4.563-28.629 13.859-6.266 9.296-8.203 20.89-8.232 32.1a109.653 109.653 0 0 0 39.6 83.869c7.292 5.968 15.585 11.064 24.821 12.928 12.237 2.47 24.87-.929 36.606-5.183a248.599 248.599 0 0 0 52.665-26.541c5.784-3.839 11.536-8.05 15.382-13.83 4.508-6.774 6.005-15.196 5.698-23.327Z"/><path fill="#3f3d56" d="M383.04 467.218c2.732 1.16 5.682 1.057 8.583.86 2.905-.196 5.815-.363 8.714-.624 4.694-.421 9.549-1.325 13.097-4.676 1.405-1.327-.607-3.554-2.012-2.226-3.14 2.965-7.583 3.63-11.727 3.969-2.567.209-5.14.364-7.71.541-2.723.188-5.468.387-8.038-.704-1.776-.754-2.67 2.11-.906 2.86Z"/><path fill="#3f3d56" d="M413.014 463.59c.85-1.936.808-4.514 2.27-6.141a2.584 2.584 0 0 1 2.011-.787 11.965 11.965 0 0 1 1.434.105 3.314 3.314 0 0 1 1.045.17c.039.022.002-.038-.009-.054-.019-.03-.06.269-.081.316a4.063 4.063 0 0 1-.68.978 9.605 9.605 0 0 1-1.943 1.703 9.835 9.835 0 0 1-4.997 1.642 1.512 1.512 0 0 0-1.521 1.244 1.485 1.485 0 0 0 1.011 1.685l4.358.976c1.408.316 2.871.55 4.247.99.5.161 1.782.737 1.322 1.4-.391.564-1.644.647-2.214.67a8.186 8.186 0 0 1-8.159-5.939c-.464-1.87-3.394-1.22-2.926.661a11.166 11.166 0 0 0 8.622 8.063c2.133.407 4.768.356 6.526-1.094a3.36 3.36 0 0 0 1.122-3.484 4.543 4.543 0 0 0-2.67-2.86 23.543 23.543 0 0 0-4.42-1.145l-4.902-1.098-.51 2.93a12.999 12.999 0 0 0 5.861-1.6 10.938 10.938 0 0 0 4.433-4.176 3.485 3.485 0 0 0 .211-3.18c-.608-1.22-1.939-1.567-3.176-1.74-2.14-.3-4.46-.238-6.045 1.451-1.961 2.09-1.98 4.906-3.08 7.407a1.51 1.51 0 0 0 .976 1.883 1.534 1.534 0 0 0 1.883-.977Z"/><circle cx="410.563" cy="434.261" r="17" fill="#ffab9e"/><path fill="#ffab9e" d="M251.522 472.168a29.221 29.221 0 0 0 33.191-6.294c1.335-1.396-.783-3.52-2.12-2.122a26.146 26.146 0 0 1-29.556 5.826c-1.745-.791-3.272 1.794-1.515 2.59Z"/><circle cx="65.482" cy="579.642" r="17" fill="#ffab9e"/></svg>
