<svg xmlns="http://www.w3.org/2000/svg" width="92" height="95" fill="none"><path fill="#FF6F61" d="M89.63 23.11v46.2L77.41 93.95l-.38.78L44.7 92.6l-12.44-.83-28.84-1.9V34.61l28.84.81 12.91.36 32.63.93 11.83-13.6Z"/><path fill="#000" d="M89.63 25.84v43.47l-2.99 6.02-3.06 6.17-6.17 12.45.69-46.2.14-9.32 5.87-6.49 2.56-2.83 2.96-3.27Z" opacity=".1"/><path fill="#FF6F61" d="M91.29 10.84v16.14l-1.66 2.64-2.96 4.72-2.63 4.18-5.8 9.24-.14-.01L.88 43.78V27.86l.19-.21 9.22-9.98 3.34-3.61 6.04-6.53 71.62 3.31Z"/><path fill="#000" d="M78.24 31.84v15.92L.88 43.78V27.86l.19-.21 77.17 4.19Z" opacity=".1"/><path fill="#000" d="M91.29 10.84v16.14L78.24 47.76V31.84l13.05-21Z" opacity=".15"/><path fill="#3F3D56" d="M86.67 18.27v16.07l-.03 40.99-3.06 6.17.46-42.98.07-6.58.1-9.71-73.92-4.56 3.34-3.61 73.04 4.21Z"/><path fill="#3F3D56" d="m50.39 18.8-5.18 11.25-.04 5.73-.47 56.82-12.44-.83V29.3l6.64-10.5h11.49Z"/><path fill="#3F3D56" d="M33.33 19.56a16.4 16.4 0 0 1-9.26.33 3.88 3.88 0 0 1-1.63-.76 4.23 4.23 0 0 1-1-2 15.659 15.659 0 0 1-.89-4.77 5.33 5.33 0 0 1 2-4.25 4.71 4.71 0 0 0 .76-.57 3.1 3.1 0 0 0 .58-1.18c.9-2.7 2.66-5.55 5.48-6 2.59-.4 5 1.42 7 3.12l4.39 3.74a6.94 6.94 0 0 1 12.93-.17A24.58 24.58 0 0 1 63.47.34a3 3 0 0 1 2.56-.1 2.89 2.89 0 0 1 1 1.37 21.202 21.202 0 0 1 1.9 8.33 1.47 1.47 0 0 1 1.7.58 4 4 0 0 1 .56 1.84c.12.995.177 1.997.17 3a4.52 4.52 0 0 1-.79 3c-.9 1-2.45 1.16-3.82 1.19a1.54 1.54 0 0 1-.4 2.27 4.4 4.4 0 0 1-2.57.5c-3.42 0-7.05-.13-9.9-2-1.12-.75-2.06-1.74-3.19-2.49-2.75-1.82-6.22-1.91-9.41-1.76-2.91.18-5.2 2.57-7.95 3.49Z"/><path fill="#3F3D56" d="M32.68 18.8S4.16 22.8.18 40.02l6-.88 4.2 7.52s4.42-16.8 17.46-20.78c13.04-3.98 17.69-4.64 17.69-4.64s9.06 2.21 17.24 28.51l4.64-6.41 8.18 1.77s-6-20.56-22.1-26.31H32.68Z"/></svg>