<svg xmlns="http://www.w3.org/2000/svg" width="77" height="80" fill="none"><path fill="#3F3D56" d="M75.29 19.65v38.62l-10.21 20.6-.32.66-27.03-1.79-10.4-.69-24.11-1.59v-46.2l24.11.68 10.79.3 27.29.77 9.88-11.36Z"/><path fill="#000" d="M75.29 21.93v36.34l-2.49 5.04-2.56 5.15v.01l-5.16 10.4.58-38.62.12-7.79 4.9-5.43 2.14-2.37 2.47-2.73Z" opacity=".1"/><path fill="#3F3D56" d="M76.68 9.39v13.49l-1.39 2.21-2.47 3.95-2.2 3.49-4.84 7.72h-.12L1.09 36.93V23.62l.16-.17 7.71-8.35 2.79-3.02 5.05-5.46 59.88 2.77Z"/><path fill="#000" d="M65.78 26.95v13.3L1.09 36.93V23.62l.16-.17 64.53 3.5Z" opacity=".1"/><path fill="#000" d="M76.68 9.39v13.49l-10.9 17.37v-13.3l10.9-17.56Z" opacity=".15"/><path fill="#6C63FF" d="m72.83 15.6-.01 9.06v4.38l-.02 34.27-2.56 5.15.38-35.93.06-5.5.09-8.12L8.96 15.1l2.79-3.02 61.08 3.52Z"/><path fill="#6C63FF" d="m42.49 16.04-4.33 9.41-.04 4.79-.39 47.5-10.4-.69V24.82l5.55-8.78h9.61Z"/><path fill="#6C63FF" d="M28.23 16.65a13.73 13.73 0 0 1-7.75.27 3.212 3.212 0 0 1-1.36-.63 3.581 3.581 0 0 1-.84-1.67c-.45-1.287-.7-2.636-.74-4a4.44 4.44 0 0 1 1.66-3.56c.224-.136.436-.294.63-.47.231-.296.398-.636.49-1 .75-2.26 2.22-4.64 4.58-5 2.17-.33 4.14 1.19 5.82 2.61l3.67 3.13a5.8 5.8 0 0 1 10.81-.15A20.55 20.55 0 0 1 53.37.57a2.5 2.5 0 0 1 2.15-.08c.39.291.686.691.85 1.15a17.62 17.62 0 0 1 1.6 7 1.2 1.2 0 0 1 1.41.49c.285.461.447.988.47 1.53.1.84.15 1.684.15 2.53a3.79 3.79 0 0 1-.66 2.53c-.75.88-2 1-3.2 1a1.288 1.288 0 0 1-.33 1.9 3.74 3.74 0 0 1-2.15.41c-2.86 0-5.9-.1-8.28-1.69-.93-.63-1.72-1.46-2.66-2.08-2.31-1.53-5.2-1.6-7.87-1.48-2.41.13-4.33 2.13-6.62 2.87Z"/><path fill="#6C63FF" d="M27.68 16.04S3.84 19.37.52 33.79l5-.74 3.51 6.28s3.7-14 14.6-17.37c10.9-3.37 14.78-3.88 14.78-3.88s7.58 1.85 14.42 23.84l3.88-5.36 6.84 1.48s-5-17.19-18.48-22H27.68Z"/></svg>