<svg xmlns="http://www.w3.org/2000/svg" width="124" height="129" fill="none"><path fill="#6C63FF" d="M120.78 32.18v62.41l-16.5 33.279-.52 1.05-43.68-2.88-16.79-1.11-38.96-2.58v-74.64l38.96 1.09 17.43.5 44.09 1.24 15.97-18.36Z"/><path fill="#000" d="M120.78 35.86v58.73l-4.03 8.129-4.13 8.33v.01l-8.34 16.81.93-62.41.19-12.59 7.93-8.76v-.01l3.45-3.82 4-4.42Z" opacity=".1"/><path fill="#6C63FF" d="M123.02 15.61V37.4l-2.24 3.57-4 6.38-3.55 5.64-7.83 12.48-.19-.01L.89 60.1V38.6l.27-.29 12.45-13.48 4.51-4.88 8.15-8.82 96.75 4.48Z"/><path fill="#000" d="M105.4 43.97v21.5L.89 60.1V38.6l.27-.29 104.24 5.66Z" opacity=".1"/><path fill="#000" d="M123.02 15.61V37.4L105.4 65.47v-21.5l17.62-28.36Z" opacity=".15"/><path fill="#3F3D56" d="m116.79 25.64-.01 14.64v7.07l-.03 55.369-4.13 8.33.61-58.06.1-8.88v-.01l.14-13.11-99.86-6.16 4.51-4.88 98.67 5.69Z"/><path fill="#3F3D56" d="m67.78 26.35-7 15.2-.06 7.75-.64 76.739-16.79-1.11v-84.39l8.96-14.19h15.53Z"/><path fill="#3F3D56" d="M44.74 27.38a22.24 22.24 0 0 1-12.52.44 5 5 0 0 1-2.19-1 5.69 5.69 0 0 1-1.36-2.69 21.311 21.311 0 0 1-1.2-6.44 7.19 7.19 0 0 1 2.68-5.75c.36-.218.695-.472 1-.76a4.34 4.34 0 0 0 .78-1.6c1.23-3.65 3.6-7.5 7.4-8.08 3.51-.54 6.71 1.91 9.41 4.21l5.93 5a9.37 9.37 0 0 1 17.47-.24 33.22 33.22 0 0 1 13.2-9.06c1.12-.42 2.44-.76 3.47-.13a3.9 3.9 0 0 1 1.38 1.85 28.58 28.58 0 0 1 2.57 11.25 2 2 0 0 1 2.29.79c.46.748.72 1.602.76 2.48.16 1.357.24 2.722.24 4.09a6.17 6.17 0 0 1-1.07 4.09c-1.22 1.41-3.31 1.56-5.17 1.6.9.8.46 2.4-.53 3.07a5.94 5.94 0 0 1-3.47.67c-4.62 0-9.53-.17-13.37-2.74-1.52-1-2.79-2.36-4.31-3.36-3.73-2.47-8.41-2.59-12.72-2.38-3.87.21-6.97 3.49-10.67 4.69Z"/><path fill="#3F3D56" d="M43.89 26.36S5.37 31.73 0 55.02l8.06-1.19 5.67 10.15s6-22.69 23.59-28.07c17.59-5.38 23.89-6.27 23.89-6.27s12.24 3 23.29 38.52l6.27-8.66 11 2.39s-8.06-27.77-29.86-35.53H43.89Z"/></svg>