<svg xmlns="http://www.w3.org/2000/svg" width="43" height="45" fill="none"><path fill="#FF6F61" d="M42.05 11.078v21.75l-5.75 11.6-.18.37-15.23-1-5.85-.39-13.59-.9v-26.02l13.59.38 6.07.17 15.37.44 5.57-6.4Z"/><path fill="#000" d="M42.05 12.358v20.47l-1.4 2.84-1.45 2.9-2.9 5.86.33-21.75.06-4.39 2.76-3.06 1.21-1.33 1.39-1.54Z" opacity=".1"/><path fill="#FF6F61" d="M42.83 5.298v7.6l-.78 1.24-1.39 2.22-1.24 1.97-2.73 4.35h-.06L.26 20.808v-7.5l.09-.1 4.34-4.69 1.57-1.71 2.85-3.07 33.72 1.56Z"/><path fill="#000" d="M36.69 15.188v7.49L.26 20.808v-7.5l.09-.1 36.34 1.98Z" opacity=".1"/><path fill="#000" d="M42.83 5.298v7.6l-6.14 9.78v-7.49l6.14-9.89Z" opacity=".15"/><path fill="#3F3D56" d="M40.66 8.788v7.57l-.01 19.31-1.45 2.9.22-20.24.03-3.1.05-4.57-34.81-2.14 1.57-1.71 34.4 1.98Z"/><path fill="#3F3D56" d="m23.58 9.048-2.44 5.29-.03 2.7-.22 26.76-5.85-.39v-29.42l3.12-4.94h5.42Z"/><path fill="#3F3D56" d="M15.54 9.398a7.71 7.71 0 0 1-4.36.16 1.77 1.77 0 0 1-.77-.36 2 2 0 0 1-.47-.94 7.52 7.52 0 0 1-.42-2.24 2.49 2.49 0 0 1 .94-2c.125-.079.242-.169.35-.27a1.55 1.55 0 0 0 .28-.56c.42-1.27 1.25-2.61 2.57-2.82 1.32-.21 2.34.67 3.28 1.47l2.07 1.76a3.27 3.27 0 0 1 6.09-.08 11.62 11.62 0 0 1 4.6-3.16 1.47 1.47 0 0 1 1.21 0c.222.163.39.39.48.65a9.85 9.85 0 0 1 .9 3.92.7.7 0 0 1 .8.28c.16.259.25.556.26.86.06.474.09.952.09 1.43a2.12 2.12 0 0 1-.38 1.42 2.31 2.31 0 0 1-1.8.56.73.73 0 0 1-.18 1.07 2.1 2.1 0 0 1-1.21.24 8.39 8.39 0 0 1-4.66-1c-.53-.35-1-.82-1.51-1.17a7.3 7.3 0 0 0-4.43-.83c-1.36.05-2.44 1.18-3.73 1.61Z"/><path fill="#3F3D56" d="M15.3 9.048s-13.43 1.87-15.3 10l2.81-.42 2 3.54s2.09-7.91 8.23-9.78a69.18 69.18 0 0 1 8.26-2.2s4.27 1 8.12 13.43l2.19-3 3.85.83s-2.81-9.68-10.41-12.38l-9.75-.02Z"/></svg>