<svg xmlns="http://www.w3.org/2000/svg" width="64" height="66" fill="none"><path fill="#6C63FF" d="M62.15 16.088v32.11l-8.49 17.13-.27.54-22.47-1.48-8.64-.58-20.05-1.32v-38.41l20.05.57 8.97.25 22.68.64 8.22-9.45Z"/><path fill="#000" d="M62.15 17.988v30.21l-2.08 4.19-2.12 4.28v.01l-4.29 8.65.48-32.11.1-6.48 4.07-4.51 1.78-1.97 2.06-2.27Z" opacity=".1"/><path fill="#6C63FF" d="M63.3 7.558v11.22l-1.15 1.84-2.06 3.28-1.83 2.9-4.02 6.42h-.1L.46 30.458v-11.07l.14-.14 6.41-6.94 2.32-2.51 4.19-4.54 49.78 2.3Z"/><path fill="#000" d="M54.24 22.158v11.06L.46 30.458v-11.07l.14-.14 53.64 2.91Z" opacity=".1"/><path fill="#000" d="M63.3 7.558v11.22l-9.06 14.44v-11.06l9.06-14.6Z" opacity=".15"/><path fill="#3F3D56" d="M60.09 12.728v11.17l-.02 28.49-2.12 4.28.31-29.87.05-4.57.08-6.75-51.38-3.17 2.32-2.51 50.76 2.93Z"/><path fill="#3F3D56" d="m34.88 13.088-3.6 7.82-.03 3.99-.33 39.49-8.64-.58v-43.42l4.61-7.3h7.99Z"/><path fill="#3F3D56" d="M23.02 13.618c-2.08.69-4.315.77-6.44.23a2.72 2.72 0 0 1-1.13-.52 3.06 3.06 0 0 1-.7-1.39 10.759 10.759 0 0 1-.61-3.31 3.67 3.67 0 0 1 1.37-3c.189-.113.366-.243.53-.39a2.21 2.21 0 0 0 .4-.83c.63-1.87 1.85-3.86 3.81-4.16 1.96-.3 3.45 1 4.84 2.17l3 2.6a4.82 4.82 0 0 1 9-.12 17.06 17.06 0 0 1 6.79-4.66 2.09 2.09 0 0 1 1.79-.07c.325.24.572.57.71.95a14.66 14.66 0 0 1 1.32 5.79 1 1 0 0 1 1.18.41c.235.384.37.82.39 1.27.08.7.12 1.405.12 2.11a3.18 3.18 0 0 1-.55 2.1 3.46 3.46 0 0 1-2.66.82 1.068 1.068 0 0 1-.27 1.58 3 3 0 0 1-1.79.35c-2.37 0-4.9-.09-6.88-1.41-.78-.52-1.43-1.21-2.21-1.73-1.92-1.27-4.33-1.33-6.55-1.23-1.96.14-3.55 1.8-5.46 2.44Z"/><path fill="#3F3D56" d="M22.59 13.098S2.77 15.858 0 27.848l4.15-.62 2.92 5.23s3.07-11.68 12.14-14.45c9.07-2.77 12.29-3.22 12.29-3.22s6.3 1.53 12 19.82l3.23-4.46 5.68 1.23s-4.15-14.29-15.36-18.28H22.59Z"/></svg>