<svg xmlns="http://www.w3.org/2000/svg" width="1146" height="819" fill="none"><g clip-path="url(#a)"><path fill="#6C63FF" d="M1145.7 538.14a267.97 267.97 0 0 1-24.73 112.289 267.941 267.941 0 0 1-69.49 91.6 268.054 268.054 0 0 1-216.27 60.631H410.5a364.103 364.103 0 0 1-49.5 3.38 362.21 362.21 0 0 1-35.23-1.7A360.621 360.621 0 0 1 0 445.04c0-199.38 161.63-361 361-361 160.57 0 296.63 104.84 343.52 249.8a266.84 266.84 0 0 1 173.33-63.6c147.91 0 267.85 119.94 267.85 267.9Z" opacity=".1"/><path fill="#6C63FF" d="M1042.79 749.21a268.307 268.307 0 0 1-207.58 53.45H410.5a364.103 364.103 0 0 1-49.5 3.38 362.21 362.21 0 0 1-35.23-1.7 361.166 361.166 0 0 1-309-250.21c34.58-73.89 123.42-126.47 227.58-126.47 101.5 0 188.5 49.94 224.81 120.87a301.902 301.902 0 0 1 54.19-4.87c105.2 0 194.77 53.67 228.59 128.67a295.61 295.61 0 0 1 86.41-12.71c85.8.04 161.21 35.71 204.44 89.59Z" opacity=".1"/><path fill="#3F3D56" d="M611.51 566.09a35.872 35.872 0 0 1-4.66 15.16 38.057 38.057 0 0 1 0 37.15 35.494 35.494 0 0 1 4.43 13l-13.38 23 13.57-13.43a35.912 35.912 0 0 1-4.62 14.58 38.079 38.079 0 0 1 0 37.16 38.057 38.057 0 0 1 0 37.15 36.765 36.765 0 0 1 4.84 18.57c0 16.79-10.39 30.39-23.22 30.39h-1.07c-7.114-.43-14.247-.43-21.36 0h-2.14c-7.114-.43-14.247-.43-21.36 0h-1.07c-12.82 0-23.22-13.6-23.22-30.39a36.578 36.578 0 0 1 4.85-18.57 36.614 36.614 0 0 1-4.88-18.53 39.24 39.24 0 0 1 .67-7.19l18.59 11.54-16.78-17.95a31.53 31.53 0 0 1 2.37-5 38.004 38.004 0 0 1 0-37.16 37.995 37.995 0 0 1 0-37.15 36.108 36.108 0 0 1-4.78-16.53l31.85 19.76-30.42-32.52a34.465 34.465 0 0 1 3.35-7.86 35.06 35.06 0 0 1-4.32-12.14 38.592 38.592 0 0 1-.53-6.43 36.614 36.614 0 0 1 4.85-18.58 36.578 36.578 0 0 1-4.85-18.57c0-16.79 10.4-30.4 23.22-30.4a19.186 19.186 0 0 1 11.75 4.18 18.598 18.598 0 0 1 23.5 0 19.159 19.159 0 0 1 11.75-4.18c12.83 0 23.22 13.61 23.22 30.4a36.77 36.77 0 0 1-4.81 18.55 36.804 36.804 0 0 1 4.84 18.58c-.03 1.15-.08 2.29-.18 3.41Z"/><path fill="#000" d="M606.85 544.1a36.804 36.804 0 0 1 4.84 18.58c0 1.15 0 2.29-.15 3.41a110.05 110.05 0 0 1-41.21-25.57 110.007 110.007 0 0 1-51.55 28.59 38.592 38.592 0 0 1-.53-6.43 36.614 36.614 0 0 1 4.85-18.58 36.578 36.578 0 0 1-4.85-18.57c0-16.79 10.4-30.4 23.22-30.4a19.182 19.182 0 0 1 11.72 4.2 18.598 18.598 0 0 1 23.5 0 19.159 19.159 0 0 1 11.75-4.18c12.83 0 23.22 13.61 23.22 30.4a36.77 36.77 0 0 1-4.81 18.55Z" opacity=".1"/><path fill="#6C63FF" d="M830.51 416.11 886 389.44a110.652 110.652 0 0 0-47.29-42c.31-3.39.48-6.82.48-10.29a110.01 110.01 0 0 0-7-38.8l-69.6-25.02.25-.51 58.92 4.85a110.76 110.76 0 0 0-48.31-41.38c.437-4.009.657-8.038.66-12.07a109.922 109.922 0 0 0-8.54-42.62l-33 32.67 26.57-45.61a110.842 110.842 0 0 0-15.77-20.85l-34.3 33.93 24.86-42.68a109.922 109.922 0 0 0-39.36-20.78 110.503 110.503 0 0 0-58.41-71l-48.2 47.68L619.5 40.8a110.35 110.35 0 0 0-137.88 76.43 110.103 110.103 0 0 0-52.64 30.51l38.67 36.77-47.85-25.93a109.794 109.794 0 0 0-21.65 65.63c0 1.56 0 3.11.11 4.66a110.146 110.146 0 0 0-64.95 38.85l31.31 29.77-38-20.6a109.741 109.741 0 0 0-17.94 60.29c0 1.28 0 2.55.08 3.82a110.006 110.006 0 0 0-46.58 26l41.89 39.82-52.45-28.42a109.751 109.751 0 0 0-24.28 69c0 1.56 0 3.11.11 4.66l52.22 49.64-48.82-26.37a110.28 110.28 0 0 0 184.44 50.34 110.239 110.239 0 0 0 155 .44 110.239 110.239 0 0 0 149.56 4.55 110.29 110.29 0 0 0 173.86-126.33l-63.2 11.78Z"/><path fill="#000" d="M848.66 454.49c-23.34 11.84-51.31 2.53-75.95-6.29-32.24-11.55-65.19-22.13-99.29-25.37-34.1-3.24-69.76 1.31-99.43 18.42-17.72 10.22-33 24.68-51.82 32.73-53.05 22.71-115.38-11.58-171.26 2.81-32.88 8.46-57.84 31.92-82.2 56.72a110.223 110.223 0 0 0 146.59-7.89 110.243 110.243 0 0 0 155 .44 110.238 110.238 0 0 0 149.55 4.6 110.272 110.272 0 0 0 182.58-83.25 111.293 111.293 0 0 0-1.89-20.38 74.764 74.764 0 0 0-28.52 11.14c-7.91 5.24-14.87 12.01-23.36 16.32ZM491.24 119.17c23 5.32 45.57 14.09 63.82 29s31.79 36.61 33.41 60.16M637.85 318.33c8.61-21.95 20.56-43 38-58.93s40.82-26.13 64.32-24.33M339.75 339.13c23.49 1.92 47.13 7.3 67.36 19.41 20.23 12.11 36.78 31.56 41.82 54.6" opacity=".1"/><path fill="#FF6F61" d="M467.72 200.67c8.986 0 16.27-7.284 16.27-16.27s-7.284-16.27-16.27-16.27-16.27 7.284-16.27 16.27 7.284 16.27 16.27 16.27ZM483.99 131.07c8.986 0 16.27-7.284 16.27-16.27s-7.284-16.27-16.27-16.27-16.27 7.284-16.27 16.27 7.284 16.27 16.27 16.27ZM398.12 240.43c8.986 0 16.27-7.284 16.27-16.27s-7.284-16.27-16.27-16.27-16.27 7.284-16.27 16.27 7.284 16.27 16.27 16.27ZM694.58 131.07c8.986 0 16.27-7.284 16.27-16.27s-7.284-16.27-16.27-16.27-16.27 7.284-16.27 16.27 7.284 16.27 16.27 16.27ZM765.07 200.67c8.986 0 16.27-7.284 16.27-16.27s-7.284-16.27-16.27-16.27-16.27 7.284-16.27 16.27 7.284 16.27 16.27 16.27ZM831.96 314.55c8.986 0 16.27-7.284 16.27-16.27s-7.284-16.27-16.27-16.27-16.27 7.284-16.27 16.27 7.284 16.27 16.27 16.27ZM893.42 429.33c8.986 0 16.27-7.284 16.27-16.27s-7.284-16.27-16.27-16.27-16.27 7.284-16.27 16.27 7.284 16.27 16.27 16.27ZM719.88 546.83c8.986 0 16.27-7.284 16.27-16.27s-7.284-16.27-16.27-16.27-16.27 7.284-16.27 16.27 7.284 16.27 16.27 16.27ZM415.3 546.83c8.986 0 16.27-7.284 16.27-16.27s-7.284-16.27-16.27-16.27-16.27 7.284-16.27 16.27 7.284 16.27 16.27 16.27ZM582.5 220.55c8.986 0 16.27-7.284 16.27-16.27s-7.284-16.27-16.27-16.27-16.27 7.284-16.27 16.27 7.284 16.27 16.27 16.27ZM637.64 330.82c8.986 0 16.27-7.284 16.27-16.27s-7.284-16.27-16.27-16.27-16.27 7.284-16.27 16.27 7.284 16.27 16.27 16.27ZM860.88 549.54c8.986 0 16.27-7.284 16.27-16.27S869.866 517 860.88 517s-16.27 7.284-16.27 16.27 7.284 16.27 16.27 16.27ZM447.83 423.91c8.986 0 16.27-7.284 16.27-16.27s-7.284-16.27-16.27-16.27-16.27 7.284-16.27 16.27 7.284 16.27 16.27 16.27ZM588.83 108.48c8.986 0 16.27-7.284 16.27-16.27s-7.284-16.27-16.27-16.27-16.27 7.284-16.27 16.27 7.284 16.27 16.27 16.27ZM308.64 355.22c8.986 0 16.27-7.284 16.27-16.27s-7.284-16.27-16.27-16.27-16.27 7.284-16.27 16.27 7.284 16.27 16.27 16.27ZM227.3 498.02c8.986 0 16.27-7.284 16.27-16.27s-7.284-16.27-16.27-16.27-16.27 7.284-16.27 16.27 7.284 16.27 16.27 16.27ZM252.61 399.51c8.986 0 16.27-7.284 16.27-16.27s-7.284-16.27-16.27-16.27-16.27 7.284-16.27 16.27 7.284 16.27 16.27 16.27Z"/><path fill="#EDEDF4" d="M814.85 357.38c-2.52-.36-5.47-1.65-8-1.61-2.53.04-4.42 7.68-6.93 8.07-2.51.39-5.74-3.39-8.19-2.68-2.45.71-3.55 4.81-5.9 5.78-2.35.97-5.16.48-7.4 1.67s-3.13 4.28-5.24 5.66c-2.11 1.38-6 .16-8 1.71s-2.72 4.58-4.64 6.24c-1.92 1.66-6.71.17-8.55 1.92-1.84 1.75-4.69 2.6-6.47 4.41-1.78 1.81-1.21 5.93-3 7.77-1.79 1.84-3.32 3.85-5 5.7M479.41 335.14c-1.24-2.23-2-5.41-3.52-7.4-1.52-1.99-9 1.32-10.86-.44-1.86-1.76-.63-6.76-2.67-8.28-2.04-1.52-6.06.19-8.25-1.09-2.19-1.28-3.46-3.89-5.76-5-2.3-1.11-5.32.17-7.7-.67-2.38-.84-3.68-4.78-6.12-5.45-2.44-.67-5.31.67-7.79.15-2.48-.52-4.15-5.44-6.66-5.84-2.51-.4-4.9-2.24-7.42-2.57-2.52-.33-5.47 2.76-8 2.49-2.53-.27-5.08-.32-7.59-.58M537.99 408.33c1.41-2.28 5.18-4.26 7.76-5 2.58-.74 5.82.36 8.37.58 2.55.22 5.07 2.2 7.67 2.45 2.6.25 6.11 2.36 8.67 1.69a49.457 49.457 0 0 0 7.32-3c2.41-1.09 3.46-5.34 6-6.05s6 3.4 8.56 3c2.56-.4 4.4-5.86 7-6.14 2.6-.28 5.33.2 8 0 1.93-.16 2.63 3.72 4.45 4.36 2.53.89 8.24-2.74 9.93-.55 1.69 2.19 1 5.68 3.5 6.55M582.5 194.76a13.91 13.91 0 0 1 6.31 1.18c2.13 1 5 .91 6.56 2.67 1.56 1.76 1.83 4.64 2.49 6.91.41-1.43 2.27-3.28 2.27-4.85 0-2.21-1.86-4.28-2.66-6.2a16.332 16.332 0 0 0-3.36-5.41c-1.5-1.5-2.78-4.09-4.76-4.91-1.98-.82-4.64.34-6.85.34a16.077 16.077 0 0 0-6.22 1.16c-2 .82-4.67 1.13-6.17 2.62-1.5 1.49-1.69 4.23-2.52 6.22-.83 1.99.23 4 .23 6.18 0 1.57-2 2.24-1.6 3.67.59-2.21 1.666-4.26 3.15-6a18.752 18.752 0 0 1 5.79-4.69c2.07-.91 4.92 1.11 7.34 1.11ZM719.85 519.23c2.166-.104 4.327.3 6.31 1.18 2.13 1 5 .91 6.56 2.67 1.56 1.76 1.83 4.64 2.49 6.92.41-1.44 2.27-3.29 2.27-4.86 0-2.21-1.86-4.28-2.66-6.2a16.322 16.322 0 0 0-3.36-5.41c-1.5-1.49-2.78-4.08-4.76-4.91-1.98-.83-4.64.34-6.85.34a16.077 16.077 0 0 0-6.22 1.16c-2 .82-4.67 1.13-6.17 2.63s-1.69 4.23-2.52 6.21c-.83 1.98.23 4 .23 6.18 0 1.57-2 2.24-1.6 3.67a15.419 15.419 0 0 1 3.15-6 18.83 18.83 0 0 1 5.8-4.69c2.09-.9 4.94 1.11 7.33 1.11ZM860.85 519.23a13.88 13.88 0 0 1 6.3 1.18c2.14 1 5 .91 6.57 2.67 1.57 1.76 1.83 4.64 2.48 6.92.42-1.44 2.27-3.29 2.27-4.86 0-2.21-1.86-4.28-2.65-6.2a16.504 16.504 0 0 0-3.37-5.41c-1.49-1.49-2.77-4.08-4.76-4.91-1.99-.83-4.63.34-6.84.34a16 16 0 0 0-6.22 1.16c-2 .82-4.67 1.13-6.17 2.63s-1.69 4.23-2.52 6.21c-.83 1.98.23 4 .23 6.18 0 1.57-2 2.24-1.6 3.67a15.526 15.526 0 0 1 3.14-6 19.069 19.069 0 0 1 5.8-4.69c2.09-.9 4.95 1.11 7.34 1.11ZM440.58 397.2a13.998 13.998 0 0 1 6-2.23c2.34-.25 4.79-1.78 7-1.05s4 3 5.69 4.64c-.38-1.45.24-4-.57-5.32-1.13-1.89-3.78-2.73-5.44-4a16.371 16.371 0 0 0-5.67-2.91c-2.05-.51-4.47-2.06-6.6-1.74-2.13.32-3.81 2.64-5.7 3.78a15.994 15.994 0 0 0-4.75 4.19c-1.28 1.73-3.4 3.38-3.92 5.43s.7 4.49 1 6.62c.3 2.13 2.21 3.31 3.34 5.2.81 1.34-.53 3 .56 4a15.203 15.203 0 0 1-.36-6.73 18.596 18.596 0 0 1 2.56-7c1.32-1.86 4.78-1.63 6.86-2.88ZM407.13 520.12a14.081 14.081 0 0 1 6-2.23c2.33-.25 4.79-1.78 7-1s3.95 3 5.69 4.64c-.38-1.45.24-4-.57-5.32-1.13-1.89-3.78-2.73-5.45-4a16.317 16.317 0 0 0-5.66-2.91c-2.06-.51-4.48-2.06-6.61-1.74-2.13.32-3.8 2.64-5.7 3.78a16.129 16.129 0 0 0-4.74 4.19c-1.28 1.73-3.4 3.38-3.92 5.43s.7 4.49 1 6.62c.3 2.13 2.21 3.31 3.34 5.2.81 1.34-.54 2.95.56 4a15.203 15.203 0 0 1-.36-6.73 18.596 18.596 0 0 1 2.56-7c1.33-1.91 4.79-1.72 6.86-2.93ZM305.91 330.33a13.998 13.998 0 0 1 6-2.23c2.34-.25 4.8-1.78 7-1.05s4 3 5.69 4.63c-.38-1.44.24-4-.57-5.31-1.13-1.89-3.78-2.73-5.44-4a16.33 16.33 0 0 0-5.67-2.9c-2-.52-4.47-2.06-6.6-1.74-2.13.32-3.81 2.64-5.7 3.78a15.994 15.994 0 0 0-4.75 4.19c-1.28 1.73-3.4 3.37-3.92 5.43-.52 2.06.7 4.49 1 6.62.3 2.13 2.21 3.3 3.34 5.2.81 1.34-.53 2.94.56 4a15.233 15.233 0 0 1-.36-6.73 18.596 18.596 0 0 1 2.56-7c1.32-1.89 4.8-1.66 6.86-2.89ZM249.85 377.33a13.998 13.998 0 0 1 6-2.23c2.34-.26 4.8-1.78 7-1.05s4 3 5.69 4.63c-.38-1.44.24-4-.57-5.31-1.13-1.89-3.77-2.73-5.44-4a16.372 16.372 0 0 0-5.66-2.9c-2.06-.52-4.48-2.06-6.61-1.75-2.13.31-3.81 2.65-5.7 3.78a16.177 16.177 0 0 0-4.74 4.2c-1.29 1.73-3.41 3.37-3.92 5.43-.51 2.06.7 4.49 1 6.62.3 2.13 2.21 3.3 3.35 5.19.8 1.35-.54 2.95.55 4a15.534 15.534 0 0 1-.36-6.73 19.048 19.048 0 0 1 2.56-7c1.34-1.88 4.79-1.65 6.85-2.88ZM224.56 473.12a14.081 14.081 0 0 1 6-2.23c2.34-.25 4.8-1.78 7-1s3.95 3 5.69 4.64c-.39-1.45.23-4-.57-5.32-1.14-1.89-3.78-2.73-5.45-4a16.56 16.56 0 0 0-5.66-2.91c-2.06-.51-4.48-2-6.61-1.74s-3.81 2.65-5.7 3.78a16.129 16.129 0 0 0-4.74 4.19c-1.28 1.73-3.41 3.38-3.92 5.43-.51 2.05.7 4.5 1 6.62.3 2.12 2.22 3.31 3.35 5.2.81 1.35-.54 2.95.56 4a15.414 15.414 0 0 1-.37-6.74 18.774 18.774 0 0 1 2.57-7c1.32-1.9 4.78-1.71 6.85-2.92ZM394.48 216.44a14.081 14.081 0 0 1 6-2.23c2.34-.26 4.8-1.78 7-1.05s3.95 3 5.69 4.63c-.39-1.44.23-4-.57-5.31-1.14-1.89-3.78-2.73-5.45-4a16.372 16.372 0 0 0-5.66-2.9c-2.06-.52-4.48-2.06-6.61-1.75-2.13.31-3.81 2.65-5.7 3.78a16.177 16.177 0 0 0-4.74 4.2c-1.28 1.72-3.41 3.37-3.92 5.43-.51 2.06.7 4.49 1 6.62.3 2.13 2.22 3.3 3.35 5.19.81 1.35-.54 2.95.56 4a15.368 15.368 0 0 1-.37-6.73 18.856 18.856 0 0 1 2.57-7c1.32-1.87 4.77-1.64 6.85-2.88ZM464.07 176.67a14.081 14.081 0 0 1 6-2.23c2.33-.25 4.79-1.78 7-1.05s3.95 3 5.69 4.63c-.38-1.44.24-4-.57-5.31-1.13-1.89-3.78-2.73-5.45-4a16.2 16.2 0 0 0-5.66-2.9c-2.05-.52-4.48-2.06-6.6-1.74-2.12.32-3.81 2.64-5.71 3.78a16.129 16.129 0 0 0-4.74 4.19c-1.28 1.73-3.4 3.37-3.92 5.43-.52 2.06.7 4.49 1 6.62.3 2.13 2.21 3.3 3.34 5.2.81 1.34-.53 2.94.56 4a15.233 15.233 0 0 1-.36-6.73 18.596 18.596 0 0 1 2.56-7c1.33-1.88 4.79-1.65 6.86-2.89ZM478.54 105.27a13.998 13.998 0 0 1 6-2.23c2.34-.26 4.8-1.78 7-1.05s4 3 5.69 4.63c-.38-1.44.24-4-.57-5.31-1.13-1.89-3.78-2.73-5.44-4a16.327 16.327 0 0 0-5.67-2.9c-2.05-.52-4.47-2.06-6.6-1.75-2.13.31-3.81 2.65-5.7 3.78a16.229 16.229 0 0 0-4.75 4.2c-1.28 1.72-3.4 3.37-3.92 5.43-.52 2.06.7 4.49 1 6.62.3 2.13 2.21 3.3 3.34 5.19.81 1.35-.53 2.95.56 4a15.233 15.233 0 0 1-.36-6.73 18.647 18.647 0 0 1 2.56-7c1.32-1.82 4.78-1.64 6.86-2.88ZM588.85 81.78a13.88 13.88 0 0 1 6.3 1.18c2.14 1 5.05.91 6.57 2.67 1.52 1.76 1.83 4.64 2.48 6.92.42-1.44 2.27-3.29 2.27-4.86 0-2.21-1.86-4.28-2.65-6.2a16.506 16.506 0 0 0-3.37-5.41c-1.49-1.49-2.77-4.08-4.76-4.91-1.99-.83-4.63.34-6.84.34a15.998 15.998 0 0 0-6.22 1.16c-2 .82-4.68 1.13-6.17 2.63-1.49 1.5-1.69 4.23-2.52 6.21-.83 1.98.23 4 .23 6.18 0 1.57-2 2.24-1.6 3.67a15.527 15.527 0 0 1 3.14-6 18.937 18.937 0 0 1 5.8-4.69c2.04-.9 4.9 1.11 7.34 1.11ZM698.21 108.89a14.006 14.006 0 0 1 5.17 3.81c1.5 1.81 4.14 3 4.74 5.26.6 2.26-.36 5-.76 7.3 1-1.11 3.47-2 4.15-3.39 1-2 .19-4.66.31-6.73a16.422 16.422 0 0 0-.69-6.33c-.7-2-.73-4.88-2.16-6.49-1.43-1.61-4.32-1.72-6.3-2.67a16 16 0 0 0-6.11-1.66c-2.15-.12-4.7-1-6.7-.3s-3.36 3.06-5 4.49c-1.64 1.43-1.53 3.67-2.49 5.66-.68 1.41-2.77 1.15-3 2.63a15.327 15.327 0 0 1 5.42-4 18.833 18.833 0 0 1 7.26-1.71c2.28.04 3.98 3.08 6.16 4.13ZM771.42 179.39a13.997 13.997 0 0 1 5.17 3.8c1.5 1.82 4.14 3 4.74 5.27.6 2.27-.36 5-.76 7.3 1-1.11 3.47-2 4.15-3.39 1-2 .19-4.66.31-6.74a16.369 16.369 0 0 0-.69-6.32c-.7-2-.73-4.88-2.16-6.49-1.43-1.61-4.32-1.72-6.3-2.68a16.207 16.207 0 0 0-6.11-1.65c-2.15-.13-4.7-1-6.7-.31s-3.36 3.07-5 4.5c-1.64 1.43-1.53 3.67-2.49 5.66-.68 1.41-2.77 1.15-3 2.63a15.36 15.36 0 0 1 5.42-4 18.999 18.999 0 0 1 7.26-1.7c2.28.06 3.98 3.06 6.16 4.12ZM834.69 287.85a13.997 13.997 0 0 1 5.17 3.8c1.49 1.81 4.14 3 4.74 5.27.6 2.27-.36 5-.76 7.3 1-1.11 3.46-2 4.14-3.39 1-2 .2-4.66.31-6.74a16.399 16.399 0 0 0-.68-6.33c-.7-2-.73-4.88-2.16-6.48-1.43-1.6-4.32-1.72-6.31-2.68a16.307 16.307 0 0 0-6.1-1.66c-2.15-.12-4.7-1-6.7-.3s-3.36 3.07-5 4.5c-1.64 1.43-1.53 3.67-2.49 5.66-.68 1.41-2.77 1.15-3 2.63a15.36 15.36 0 0 1 5.42-4 18.826 18.826 0 0 1 7.26-1.7c2.32.03 3.98 3.07 6.16 4.12ZM640.36 307.73a13.9 13.9 0 0 1 5.17 3.81c1.5 1.81 4.14 3 4.74 5.26.6 2.26-.35 5-.75 7.3 1-1.11 3.46-2 4.14-3.39 1-2 .19-4.66.31-6.73a16.399 16.399 0 0 0-.68-6.33c-.7-2-.73-4.88-2.17-6.49-1.44-1.61-4.31-1.71-6.3-2.67a15.942 15.942 0 0 0-6.11-1.66c-2.15-.12-4.69-1-6.69-.3s-3.37 3.06-5 4.49c-1.63 1.43-1.53 3.67-2.49 5.66-.68 1.42-2.77 1.16-3 2.63a15.241 15.241 0 0 1 5.42-4 18.78 18.78 0 0 1 7.25-1.71c2.28.04 3.98 3.08 6.16 4.13ZM896.15 404.44a14.006 14.006 0 0 1 5.17 3.81c1.49 1.81 4.13 3 4.74 5.26.61 2.26-.36 5-.76 7.3 1-1.11 3.46-2 4.14-3.39 1-2 .2-4.66.31-6.73a16.399 16.399 0 0 0-.68-6.33c-.7-2-.73-4.88-2.16-6.49-1.43-1.61-4.32-1.72-6.31-2.67a15.947 15.947 0 0 0-6.1-1.66c-2.15-.12-4.7-1-6.7-.3s-3.36 3.06-5 4.49c-1.64 1.43-1.53 3.67-2.49 5.66-.68 1.41-2.77 1.15-3 2.63a15.241 15.241 0 0 1 5.42-4 18.833 18.833 0 0 1 7.26-1.71c2.28.02 3.98 3.08 6.16 4.13Z"/><path fill="#FEE374" d="m594.04 4.16 3.2 6.48a7.468 7.468 0 0 0 5.61 4.08l7.15 1a7.463 7.463 0 0 1 6.024 5.08 7.465 7.465 0 0 1-1.894 7.65l-5.17 5a7.494 7.494 0 0 0-2.11 6.69l1.22 7.12a7.456 7.456 0 0 1-2.969 7.29 7.462 7.462 0 0 1-7.851.57l-6.4-3.36a7.468 7.468 0 0 0-6.94 0l-6.4 3.36a7.46 7.46 0 0 1-10.82-7.86l1.16-7.12a7.489 7.489 0 0 0-2.15-6.61l-5.17-5a7.465 7.465 0 0 1-1.894-7.65 7.465 7.465 0 0 1 6.024-5.08l7.15-1a7.471 7.471 0 0 0 5.62-4.08l3.2-6.48a7.458 7.458 0 0 1 13.41-.08Z"/><path fill="#EDEDF4" d="M754.98 784.66c0 2.31-13.2.35-14.63 2.5-1.2 1.79 6.07 11.08 4 12.72-1.72 1.36-4.73 2.34-7 3.57-2 1.07-5.35.13-7.69 1.08-2.11.86-5.28-.91-7.67-.15-2.19.7-5.35-2.45-7.75-1.85-2.4.6-4.33 1-6.74 1.45-2.41.45-3.43 7.31-5.85 7.67-2.42.36-5.65-7.79-8.08-7.52-2.43.27-3.79 9.64-6.22 9.81-2.43.17-4.85-1-7.27-.88s-4.78-7.49-7.2-7.49-5 13.15-7.39 13.07c-2.39-.08-4.7-4.84-7.05-5-2.35-.16-4.64-2.54-7-2.8-2.36-.26-4-6-6.28-6.35-2.28-.35-4.68.18-7-.27-2.32-.45-6.6 7.49-8.85 6.92-2.25-.57-3.27-6.47-5.47-7.17-2.38-.75-2.86-5.52-5-6.38-2.35-1-7.06 4.2-9 3.13-2.27-1.23-3.72-3.35-5.44-4.71-2.09-1.64 2.07-7 .88-8.8-1.44-2.15-8.86-.23-8.86-2.54a12.605 12.605 0 0 1 2.57-6.75c1.2-1.79 6.54 1.13 8.63-.51 1.72-1.35-.19-7.83 2.09-9.06 2-1.07 1.65-8.39 4-9.34 2.11-.86 5.64.42 8-.34 2.2-.7 4.79-1.48 7.19-2.08 2.4-.6 4.61-2.34 7-2.81 2.39-.47 5.94 5.83 8.36 5.47 2.42-.36 3.89-7.81 6.32-8.07 2.43-.26 5.63 8.87 8.05 8.7 2.42-.17 4.78 3.45 7.2 3.37 2.42-.08 4.54-6.47 7-6.47s4.79.72 7.15.8c2.36.08 5.19-5.57 7.54-5.4 2.35.17 4.38 6.1 6.72 6.35s5.08-1.43 7.39-1.09c2.31.34 3.61 7.06 5.9 7.51 2.29.45 4.77-.15 7 .41 2.41.61 5.12-.85 7.32-.16 2.38.76 3.44 4.13 5.55 5 2.35 1 7.35-4.33 9.32-3.26a50.415 50.415 0 0 1 6.6 3.76c2.09 1.64 6 2.85 7.22 4.65 1.47 2.13 4.44 6.98 4.44 9.31Z"/><path fill="#EDEDF4" d="M857.98 784.66c0 2.31-13.2.35-14.63 2.5-1.2 1.79 6.07 11.08 4 12.72-1.72 1.36-4.73 2.34-7 3.57-2 1.07-5.35.13-7.69 1.08-2.11.86-5.28-.91-7.67-.15-2.19.7-5.35-2.45-7.75-1.85-2.4.6-4.33 1-6.74 1.45-2.41.45-3.43 7.31-5.85 7.67-2.42.36-5.65-7.79-8.08-7.52-2.43.27-3.79 9.64-6.22 9.81-2.43.17-4.85-1-7.27-.88s-4.78-7.49-7.2-7.49-5 13.15-7.39 13.07c-2.39-.08-4.7-4.84-7.05-5-2.35-.16-4.64-2.54-7-2.8-2.36-.26-4-6-6.28-6.35-2.28-.35-4.68.18-7-.27-2.32-.45-6.6 7.49-8.85 6.92-2.25-.57-3.27-6.47-5.47-7.17-2.38-.75-2.86-5.52-5-6.38-2.35-1-7.06 4.2-9 3.13-2.27-1.23-3.72-3.35-5.44-4.71-2.09-1.64 2.07-7 .88-8.8-1.44-2.15-8.86-.23-8.86-2.54a12.605 12.605 0 0 1 2.57-6.75c1.2-1.79 6.54 1.13 8.63-.51 1.72-1.35-.19-7.83 2.09-9.06 2-1.07 1.65-8.39 4-9.34 2.11-.86 5.64.42 8-.34 2.2-.7 4.79-1.48 7.19-2.08 2.4-.6 4.61-2.34 7-2.81 2.39-.47 5.94 5.83 8.36 5.47 2.42-.36 3.89-7.81 6.32-8.07 2.43-.26 5.63 8.87 8.05 8.7 2.42-.17 4.78 3.45 7.2 3.37 2.42-.08 4.54-6.47 7-6.47s4.79.72 7.15.8c2.36.08 5.19-5.57 7.54-5.4 2.35.17 4.38 6.1 6.72 6.35s5.08-1.43 7.39-1.09c2.31.34 3.61 7.06 5.9 7.51 2.29.45 4.77-.15 7 .41 2.41.61 5.12-.85 7.32-.16 2.38.76 3.44 4.13 5.55 5 2.35 1 7.35-4.33 9.32-3.26a50.415 50.415 0 0 1 6.6 3.76c2.09 1.64 6 2.85 7.22 4.65 1.47 2.13 4.44 6.98 4.44 9.31ZM583.98 780.66c0 2.31-13.2.35-14.63 2.5-1.2 1.79 6.07 11.08 4 12.72-1.72 1.36-4.73 2.34-7 3.57-2 1.07-5.35.13-7.69 1.08-2.11.86-5.28-.91-7.67-.15-2.19.7-5.35-2.45-7.75-1.85-2.4.6-4.33 1-6.74 1.45-2.41.45-3.43 7.31-5.85 7.67-2.42.36-5.65-7.79-8.08-7.52-2.43.27-3.79 9.64-6.22 9.81-2.43.17-4.85-1-7.27-.88s-4.78-7.49-7.2-7.49-5 13.15-7.39 13.07c-2.39-.08-4.7-4.84-7.05-5-2.35-.16-4.64-2.54-7-2.8-2.36-.26-4-6-6.28-6.35-2.28-.35-4.68.18-7-.27-2.32-.45-6.6 7.49-8.85 6.92-2.4-.6-3.27-6.47-5.47-7.17-2.38-.75-2.86-5.52-5-6.38-2.35-1-7.06 4.2-9 3.13-2.27-1.23-3.72-3.35-5.44-4.71-2.09-1.64 2.07-7 .88-8.8-1.44-2.15-8.86-.23-8.86-2.54a12.613 12.613 0 0 1 2.57-6.75c1.2-1.79 6.54 1.13 8.63-.51 1.72-1.35-.19-7.83 2.09-9.06 2-1.07 1.65-8.39 4-9.34 2.11-.86 5.64.42 8-.34 2.2-.7 4.79-1.48 7.19-2.08 2.4-.6 4.61-2.34 7-2.81 2.39-.47 5.94 5.83 8.36 5.47 2.42-.36 3.89-7.81 6.32-8.07 2.43-.26 5.63 8.87 8.05 8.7 2.42-.17 4.78 3.45 7.2 3.37 2.42-.08 4.54-6.47 7-6.47s4.79.72 7.15.8c2.36.08 5.19-5.57 7.54-5.4 2.35.17 4.38 6.1 6.72 6.35s5.08-1.43 7.39-1.09c2.31.34 3.61 7.06 5.9 7.51 2.29.45 4.77-.15 7 .41 2.41.61 5.12-.85 7.32-.16 2.38.76 3.44 4.13 5.55 5 2.35 1 7.35-4.33 9.32-3.26a50.415 50.415 0 0 1 6.6 3.76c2.09 1.64 6 2.85 7.22 4.65 1.47 2.13 4.44 6.98 4.44 9.31Z"/><path fill="#EDEDF4" d="M496.98 778.66c0 2.31-13.2.35-14.63 2.5-1.2 1.79 6.07 11.08 4 12.72-1.72 1.36-4.73 2.34-7 3.57-2 1.07-5.35.13-7.69 1.08-2.11.86-5.28-.91-7.67-.15-2.19.7-5.35-2.45-7.75-1.85-2.4.6-4.33 1-6.74 1.45-2.41.45-3.43 7.31-5.85 7.67-2.42.36-5.65-7.79-8.08-7.52-2.43.27-3.79 9.64-6.22 9.81-2.43.17-4.85-1-7.27-.88s-4.78-7.49-7.2-7.49-5 13.15-7.39 13.07c-2.39-.08-4.7-4.84-7.05-5-2.35-.16-4.64-2.54-7-2.8-2.36-.26-4-6-6.28-6.35-2.28-.35-4.68.18-7-.27-2.32-.45-6.6 7.49-8.85 6.92-2.4-.6-3.27-6.47-5.47-7.17-2.38-.75-2.86-5.52-5-6.38-2.35-1-7.06 4.2-9 3.13-2.27-1.23-3.72-3.35-5.44-4.71-2.09-1.64 2.07-7 .88-8.8-1.44-2.15-8.86-.23-8.86-2.54a12.613 12.613 0 0 1 2.57-6.75c1.2-1.79 6.54 1.13 8.63-.51 1.72-1.35-.19-7.83 2.09-9.06 2-1.07 1.65-8.39 4-9.34 2.11-.86 5.64.42 8-.34 2.2-.7 4.79-1.48 7.19-2.08 2.4-.6 4.61-2.34 7-2.81 2.39-.47 5.94 5.83 8.36 5.47 2.42-.36 3.89-7.81 6.32-8.07 2.43-.26 5.63 8.87 8 8.7 2.37-.17 4.78 3.45 7.2 3.37 2.42-.08 4.54-6.47 7-6.47s4.79.72 7.15.8c2.36.08 5.19-5.57 7.54-5.4 2.35.17 4.38 6.1 6.72 6.35s5.08-1.43 7.39-1.09c2.31.34 3.61 7.06 5.9 7.51 2.29.45 4.77-.15 7 .41 2.41.61 5.12-.85 7.32-.16 2.38.76 3.44 4.13 5.55 5 2.35 1 7.35-4.33 9.32-3.26a50.415 50.415 0 0 1 6.6 3.76c2.09 1.64 6 2.85 7.22 4.65 1.52 2.13 4.49 6.98 4.49 9.31Z"/><path fill="#EDEDF4" d="M475.64 774.66c0 1.95-7.75-.23-10.53 1.43-1.76 1-.78 8.55-3.44 9.43-2.1.69-4.83.9-7.4 1.46-2.24.49-5-.46-7.52-.09-2.31.34-4.92-1.06-7.43-.83-2.35.21-4.83-2-7.33-1.93-2.5.07-4.66.12-7.14.12-2.48 0-4.94 4-7.31 3.9-2.37-.1-4.49-5.5-6.83-5.71-2.52-.23-5.51 5.16-7.81 4.83-2.54-.37-4.85-1.57-7.09-2.05-2.57-.56-3.49-5.68-5.59-6.37-2.66-.87-8.21 5.56-10 4.51-2.78-1.66-3.31-6.75-3.31-8.7 0-1.95 2.68-3.43 5.47-5.1 1.75-1 5 1.25 7.64.38 2.1-.7 3.95-1.77 6.53-2.33 2.23-.49 3.64-6.19 6.17-6.56 2.31-.33 5.14 2.71 7.65 2.48 2.35-.21 4.84 2.3 7.33 2.2 2.49-.1 4.64-4.28 7.12-4.28 2.48 0 4.89.67 7.27.78 2.38.11 4.52 4.47 6.87 4.69 2.51.22 5.39-4.37 7.69-4 2.54.37 4.91 1 7.14 1.5 2.58.56 3.79 4.68 5.9 5.37 2.65.87 6.24-1.94 8-.89 2.81 1.62 7.95 3.81 7.95 5.76Z"/><path fill="#EDEDF4" d="M530.64 766.66c0 1.95-7.75-.23-10.53 1.43-1.76 1-.78 8.55-3.44 9.43-2.1.69-4.83.9-7.4 1.46-2.24.49-5-.46-7.52-.09-2.31.34-4.92-1.06-7.43-.83-2.35.21-4.83-2-7.33-1.93-2.5.07-4.66.12-7.14.12-2.48 0-4.94 4-7.31 3.9-2.37-.1-4.49-5.5-6.83-5.71-2.52-.23-5.51 5.16-7.81 4.83-2.54-.37-4.85-1.57-7.09-2.05-2.57-.56-3.49-5.68-5.59-6.37-2.66-.87-8.21 5.56-10 4.51-2.78-1.66-3.31-6.75-3.31-8.7 0-1.95 2.68-3.43 5.47-5.1 1.75-1 5 1.25 7.64.38 2.1-.7 3.95-1.77 6.53-2.33 2.23-.49 3.64-6.19 6.17-6.56 2.31-.33 5.14 2.71 7.65 2.48 2.35-.21 4.84 2.3 7.33 2.2 2.49-.1 4.64-4.28 7.12-4.28 2.48 0 4.89.67 7.27.78 2.38.11 4.52 4.47 6.87 4.69 2.51.22 5.39-4.37 7.69-4 2.54.37 4.91 1 7.14 1.5 2.58.56 3.79 4.68 5.9 5.37 2.65.87 6.24-1.94 8-.89 2.81 1.62 7.95 3.81 7.95 5.76Z"/><path fill="#EDEDF4" d="M646.98 781.66c0 2.31-13.2.35-14.63 2.5-1.2 1.79 6.07 11.08 4 12.72-1.72 1.36-4.73 2.34-7 3.57-2 1.07-5.35.13-7.69 1.08-2.11.86-5.28-.91-7.67-.15-2.19.7-5.35-2.45-7.75-1.85-2.4.6-4.33 1-6.74 1.45-2.41.45-3.43 7.31-5.85 7.67-2.42.36-5.65-7.79-8.08-7.52-2.43.27-3.79 9.64-6.22 9.81-2.43.17-4.85-1-7.27-.88s-4.78-7.49-7.2-7.49-5 13.15-7.39 13.07c-2.39-.08-4.7-4.84-7.05-5-2.35-.16-4.64-2.54-7-2.8-2.36-.26-4-6-6.28-6.35-2.28-.35-4.68.18-7-.27-2.32-.45-6.6 7.49-8.85 6.92-2.25-.57-3.27-6.47-5.47-7.17-2.38-.75-2.86-5.52-5-6.38-2.35-1-7.06 4.2-9 3.13-2.27-1.23-3.72-3.35-5.44-4.71-2.09-1.64 2.07-7 .88-8.8-1.44-2.15-8.86-.23-8.86-2.54a12.613 12.613 0 0 1 2.57-6.75c1.2-1.79 6.54 1.13 8.63-.51 1.72-1.35-.19-7.83 2.09-9.06 2-1.07 1.65-8.39 4-9.34 2.11-.86 5.64.42 8-.34 2.2-.7 4.79-1.48 7.19-2.08 2.4-.6 4.61-2.34 7-2.81 2.39-.47 5.94 5.83 8.36 5.47 2.42-.36 3.89-7.81 6.32-8.07 2.43-.26 5.63 8.87 8.05 8.7 2.42-.17 4.78 3.45 7.2 3.37 2.42-.08 4.54-6.47 7-6.47s4.79.72 7.15.8c2.36.08 5.19-5.57 7.54-5.4 2.35.17 4.38 6.1 6.72 6.35s5.08-1.43 7.39-1.09c2.31.34 3.61 7.06 5.9 7.51 2.29.45 4.77-.15 7 .41 2.41.61 5.12-.85 7.32-.16 2.38.76 3.44 4.13 5.55 5 2.35 1 7.35-4.33 9.32-3.26a50.415 50.415 0 0 1 6.6 3.76c2.09 1.64 6 2.85 7.22 4.65 1.47 2.13 4.44 6.98 4.44 9.31Z"/><path fill="#EDEDF4" d="M694.64 781.66c0 1.95-7.75-.23-10.53 1.43-1.76 1-.78 8.55-3.44 9.43-2.1.69-4.83.9-7.4 1.46-2.24.49-5-.46-7.52-.09-2.31.34-4.92-1.06-7.43-.83-2.35.21-4.83-2-7.33-1.93-2.5.07-4.66.12-7.14.12-2.48 0-4.94 4-7.31 3.9-2.37-.1-4.49-5.5-6.83-5.71-2.52-.23-5.51 5.16-7.81 4.83-2.54-.37-4.85-1.57-7.09-2.05-2.57-.56-3.49-5.68-5.59-6.37-2.66-.87-8.21 5.56-10 4.51-2.78-1.66-3.31-6.75-3.31-8.7 0-1.95 2.68-3.43 5.47-5.1 1.75-1 5 1.25 7.64.38 2.1-.7 3.95-1.77 6.53-2.33 2.23-.49 3.64-6.19 6.17-6.56 2.31-.33 5.14 2.71 7.65 2.48 2.35-.21 4.84 2.3 7.33 2.2 2.49-.1 4.64-4.28 7.12-4.28 2.48 0 4.89.67 7.27.78 2.38.11 4.52 4.47 6.87 4.69 2.51.22 5.39-4.37 7.69-4 2.54.37 4.91 1 7.14 1.5 2.58.56 3.79 4.68 5.9 5.37 2.65.87 6.24-1.94 8-.89 2.81 1.62 7.95 3.81 7.95 5.76Z"/><path fill="#EDEDF4" d="M758.64 781.66c0 1.95-7.75-.23-10.53 1.43-1.76 1-.78 8.55-3.44 9.43-2.1.69-4.83.9-7.4 1.46-2.24.49-5-.46-7.52-.09-2.31.34-4.92-1.06-7.43-.83-2.35.21-4.83-2-7.33-1.93-2.5.07-4.66.12-7.14.12-2.48 0-4.94 4-7.31 3.9-2.37-.1-4.49-5.5-6.83-5.71-2.52-.23-5.51 5.16-7.81 4.83-2.54-.37-4.85-1.57-7.09-2.05-2.57-.56-3.49-5.68-5.59-6.37-2.66-.87-8.21 5.56-10 4.51-2.78-1.66-3.31-6.75-3.31-8.7 0-1.95 2.68-3.43 5.47-5.1 1.75-1 5 1.25 7.64.38 2.1-.7 3.95-1.77 6.53-2.33 2.23-.49 3.64-6.19 6.17-6.56 2.31-.33 5.14 2.71 7.65 2.48 2.35-.21 4.84 2.3 7.33 2.2 2.49-.1 4.64-4.28 7.12-4.28 2.48 0 4.89.67 7.27.78 2.38.11 4.52 4.47 6.87 4.69 2.51.22 5.39-4.37 7.69-4 2.54.37 4.91 1 7.14 1.5 2.58.56 3.79 4.68 5.9 5.37 2.65.87 6.24-1.94 8-.89 2.81 1.62 7.95 3.81 7.95 5.76Z"/><path fill="#EDEDF4" d="M833.64 774.66c0 1.95-7.75-.23-10.53 1.43-1.76 1-.78 8.55-3.44 9.43-2.1.69-4.83.9-7.4 1.46-2.24.49-5-.46-7.52-.09-2.31.34-4.92-1.06-7.43-.83-2.35.21-4.83-2-7.33-1.93-2.5.07-4.66.12-7.14.12-2.48 0-4.94 4-7.31 3.9-2.37-.1-4.49-5.5-6.83-5.71-2.52-.23-5.51 5.16-7.81 4.83-2.54-.37-4.85-1.57-7.09-2.05-2.57-.56-3.49-5.68-5.59-6.37-2.66-.87-8.21 5.56-10 4.51-2.78-1.66-3.31-6.75-3.31-8.7 0-1.95 2.68-3.43 5.47-5.1 1.75-1 5 1.25 7.64.38 2.1-.7 3.95-1.77 6.53-2.33 2.23-.49 3.64-6.19 6.17-6.56 2.31-.33 5.14 2.71 7.65 2.48 2.35-.21 4.84 2.3 7.33 2.2 2.49-.1 4.64-4.28 7.12-4.28 2.48 0 4.89.67 7.27.78 2.38.11 4.52 4.47 6.87 4.69 2.51.22 5.39-4.37 7.69-4 2.54.37 4.91 1 7.14 1.5 2.58.56 3.79 4.68 5.9 5.37 2.65.87 6.24-1.94 8-.89 2.81 1.62 7.95 3.81 7.95 5.76Z"/></g><defs><clipPath id="a"><path fill="#fff" d="M0 0h1145.7v818.64H0z"/></clipPath></defs></svg>