<svg id="Layer_2" data-name="Layer 2" xmlns="http://www.w3.org/2000/svg" viewBox="0 0 292 485.67">
  <g id="Layer_1-2" data-name="Layer 1">
    <g>
      <path fill="#aa7569" d="M122.91,355.13h46.18v116.55h-46.18v-116.55Z"/>
      <path fill="#79cb9c" d="M238.35,123.53c0,6.41-41.34,11.61-92.35,11.61s-92.34-5.19-92.34-11.61c41.54-58.61,39.63-55.91,76.39-107.78,7.84-11.07,24.15-10.95,31.91,0,36.75,51.86,34.85,49.17,76.39,107.78Z"/>
      <path fill="#edebfd" d="M188.85,53.69c-7.14,8.18-18.39,8.29-25.67,.15-6.5,18.02-27.85,18.02-34.35,0-7.27,8.13-18.52,8.04-25.67-.15l26.89-37.94c7.8-11.02,24.1-11.02,31.91,0l26.89,37.94Z"/>
      <path fill="#63ac7d" d="M238.35,123.53c0,6.41-41.34,11.61-92.35,11.61s-92.34-5.19-92.34-11.61l14.69-20.73c59.12,5.69,148.47,.57,148.47-9.22C127.91-31.86,149.81-1.39,238.35,123.53h0Z"/>
      <path fill="#79cb9c"  d="M221.65,233.9l62.86,86.91c0,19.22-62.01,34.82-138.51,34.82S7.49,340.03,7.49,320.81l62.86-86.91H221.65Z"/>
      <circle fill="#e48c9b" cx="104.82" cy="277.01" r="14.97"/>
      <path fill="#63ac7d" d="M284.51,320.81c0,19.22-62.01,34.82-138.51,34.82S7.49,340.04,7.49,320.81l7.37-10.18c25.36,8.06,64.62,13.23,108.69,13.23,75.6,0,137.05-15.23,138.48-34.14l22.49,31.09Z"/>
      <path fill="#79cb9c"  d="M203.18,132.64l58.25,83.73c0,12.82-51.68,23.21-115.43,23.21s-115.43-10.39-115.43-23.21l58.25-83.73h114.36Z"/>
      <circle fill="#e48c9b" cx="172.21" cy="172.19" r="14.97"/>
      <path fill="#63ac7d" d="M261.43,216.37c0,12.82-51.68,23.21-115.42,23.21s-115.42-10.39-115.42-23.21l8.64-12.43c70.39,15.48,200.68,5.62,200.68-15.65l-38.71-55.66h1.99l58.24,83.73Z"/>
      <path fill="#9a6758" d="M169.09,355.13v116.55h-46.18v-29.65c15.68-7.38,26.52-23.32,26.52-41.79v-45.11h19.65Z"/>
      <path d="M292,320.81c0-1.58-.5-3.11-1.42-4.39l-56.04-77.47c23.41-5.36,34.38-12.59,34.38-22.58,0-1.53-.47-3.02-1.34-4.28l-51.12-73.49c18.68-2.61,29.38-6.18,29.38-15.08,0-1.55-.48-3.06-1.38-4.33L168.07,11.42c-10.79-15.22-33.35-15.22-44.14,0L47.55,119.2c-.9,1.27-1.38,2.78-1.38,4.33,0,8.9,10.7,12.47,29.38,15.08L24.43,212.09c-.87,1.26-1.34,2.75-1.34,4.28,0,10,10.96,17.23,34.38,22.58L1.42,316.42c-.92,1.28-1.42,2.81-1.42,4.39,0,31.27,84.2,39.72,115.43,41.46v109.41c0,4.13,3.35,7.49,7.49,7.49h46.17c4.13,0,7.49-3.35,7.49-7.49v-109.41c31.21-1.74,115.43-10.18,115.43-41.46h0ZM136.15,20.07c4.82-6.81,14.88-6.81,19.7,0l22.62,31.91c-3.65,1.16-7.11-.23-9.72-3.14-3.77-4.21-10.69-2.89-12.62,2.45-4.12,11.42-16.14,11.41-20.26,0-1.92-5.31-8.84-6.68-12.62-2.45-2.6,2.91-6.07,4.3-9.72,3.14l22.62-31.91Zm-31.45,44.37c6.71,3.68,14.74,3.95,21.77,.48,10.37,13.25,28.7,13.23,39.06,0,6.79,3.35,14.83,3.32,21.77-.48l40.28,56.83c-32.93,8.48-130.16,8.49-163.15,0l40.28-56.83Zm67.5,100.26c4.13,0,7.49,3.36,7.49,7.49s-3.36,7.49-7.49,7.49-7.49-3.36-7.49-7.49,3.36-7.49,7.49-7.49Zm-79.73-24.21c22.84,2.01,49.32,2.47,72.25,1.88v8.64c-8.71,3.09-14.97,11.41-14.97,21.17,0,12.39,10.08,22.46,22.46,22.46s22.46-10.08,22.46-22.46c0-9.76-6.26-18.08-14.97-21.17v-9.19c6.99-.34,13.64-.79,19.84-1.33l53.04,76.25c-21.06,14.29-118.51,20.93-181.89,9.61-18.99-3.39-27.88-7.32-31.25-9.61l53.04-76.25Zm12.35,129.03c4.13,0,7.49,3.36,7.49,7.49s-3.36,7.49-7.49,7.49-7.49-3.36-7.49-7.49,3.36-7.49,7.49-7.49ZM15.59,322.39l58.12-80.35c7.34,1.16,15.27,2.13,23.62,2.9v10.9c-8.71,3.09-14.97,11.41-14.97,21.17,0,12.39,10.08,22.46,22.46,22.46s22.46-10.08,22.46-22.46c0-9.76-6.26-18.08-14.97-21.17v-9.76c33.31,2,73.41,1.1,105.98-4.04l58.12,80.35c-2.16,3.3-10.58,9.82-34.29,15.78-52.94,13.31-139.28,13.31-192.24,0-23.72-5.96-32.14-12.48-34.29-15.78h0Zm146.01,141.81h-31.2v-101.3c10.3,.29,20.12,.31,31.2,0v101.3Z"/>
      <ellipse opacity="0.1" cx="150.93" cy="470.17" rx="104.5" ry="15.5"/>
    </g>
  </g>
</svg>